<?xml version="1.0" encoding="UTF-8" standalone="no"?>
<svg
   xmlns:dc="http://purl.org/dc/elements/1.1/"
   xmlns:cc="http://creativecommons.org/ns#"
   xmlns:rdf="http://www.w3.org/1999/02/22-rdf-syntax-ns#"
   xmlns:svg="http://www.w3.org/2000/svg"
   xmlns="http://www.w3.org/2000/svg"
   xmlns:sodipodi="http://sodipodi.sourceforge.net/DTD/sodipodi-0.dtd"
   xmlns:inkscape="http://www.inkscape.org/namespaces/inkscape"
   inkscape:version="1.0 (4035a4fb49, 2020-05-01)"
   sodipodi:docname="Par_Perfeito3.svg"
   id="svg40"
   version="1.1"
   height="274"
   color="#4e73df"
   width="803">
  <metadata
     id="metadata46">
    <rdf:RDF>
      <cc:Work
         rdf:about="">
        <dc:format>image/svg+xml</dc:format>
        <dc:type
           rdf:resource="http://purl.org/dc/dcmitype/StillImage" />
        <dc:title></dc:title>
      </cc:Work>
    </rdf:RDF>
  </metadata>
  <defs
     id="defs44" />
  <sodipodi:namedview
     inkscape:current-layer="svg40"
     inkscape:window-maximized="1"
     inkscape:window-y="-8"
     inkscape:window-x="-8"
     inkscape:cy="137"
     inkscape:cx="405.64987"
     inkscape:zoom="1.6064757"
     showgrid="false"
     id="namedview42"
     inkscape:window-height="1027"
     inkscape:window-width="1920"
     inkscape:pageshadow="2"
     inkscape:pageopacity="0"
     guidetolerance="10"
     gridtolerance="10"
     objecttolerance="10"
     borderopacity="1"
     bordercolor="#666666"
     pagecolor="#ffffff" />
  <g
     style="fill:#000000;fill-opacity:1"
     id="g38">
    <title
       id="title2">Layer 1</title>
    <g
       style="fill:#000000;fill-opacity:1"
       id="g36"
       stroke="null">
      <g
         style="fill:#000000;fill-opacity:1"
         id="g34"
         stroke="null">
        <path
           style="fill:#000000;fill-opacity:1"
           id="path4"
           d="m116.54824,7.08113l-78.42847,123.88134l2.97078,0l19.60712,-30.89607c0,0 0.29708,-0.29708 0.29708,-0.29708l51.98857,0c0.29708,0 0.29708,0.29708 0.29708,0.29708l0,30.30191c0,0.29708 0.29708,0.29708 0.29708,0.29708l5.94155,0c1.18831,0 1.78247,-0.89123 1.78247,-1.78247l0,-122.39595l-3.86201,0c-0.29708,0.29708 -0.59416,0.29708 -0.89123,0.59416zm-3.26785,86.15249c0,0.29708 -0.29708,0.29708 -0.29708,0.29708l-46.04702,0c-0.29708,0 -0.59416,-0.29708 -0.29708,-0.59416l46.3441,-75.4577c0.29708,-0.59416 1.18831,-0.29708 1.18831,0.29708l-0.89123,75.4577z"
           stroke="null"
           fill="#4e73df" />
        <path
           style="fill:#000000;fill-opacity:1"
           id="path6"
           d="m474.82377,123.83261c0,-0.89123 -0.29708,-1.78247 -0.29708,-2.6737c-0.89123,-4.75324 -1.48539,-9.80356 -2.6737,-14.5568c-4.15909,-15.44803 -10.69479,-28.81652 -25.84575,-36.54054c0.89123,-0.59416 1.78247,-0.89123 2.6737,-1.18831c12.47726,-5.3474 22.28082,-20.20127 19.9042,-35.05515c-2.07954,-12.47726 -14.5568,-25.54867 -27.33114,-26.73698c-10.99187,-1.18831 -21.68666,-0.29708 -32.67853,-0.59416c-0.29708,0 -0.29708,0 -0.59416,0l-0.29708,0l0,124.17842l3.26785,0l0,0c0.59416,0 1.18831,0 1.78247,0c2.6737,0.29708 3.26785,-0.89123 3.26785,-3.26785c0,-17.82465 0,-35.35223 0,-53.17688c0,-1.18831 -0.29708,-2.6737 1.78247,-2.6737c6.53571,0.29708 13.36849,0 19.9042,0.29708c1.78247,0 5.05032,1.18831 5.94155,1.48539c5.64447,2.97078 13.96265,13.36849 17.52758,24.65744c2.37662,7.42694 3.56493,18.12173 3.56493,18.71589c0,0 0,0.59416 0,1.18831c0,0.89123 0.29708,1.48539 0.29708,1.48539c0.29708,1.18831 0,2.07954 0.29708,4.75324c0,0.29708 0,0.89123 0,2.6737c0,1.48539 0,2.6737 0.29708,4.15909c1.48539,0 2.6737,0 4.15909,0c5.05032,0 5.94155,0 5.3474,-4.75324c0,-0.89123 0,-1.48539 -0.29708,-2.37662zm-38.02593,-54.95935c-6.23863,0 -12.47726,0 -18.71589,0c-1.78247,0 -2.07954,-0.59416 -2.07954,-2.37662c0,-9.2094 0,-18.12173 0,-27.33114c0,-8.91233 0,-17.82465 0,-26.4399c0,-2.37662 0.59416,-2.97078 2.97078,-2.97078c5.05032,0.29708 10.39771,0.29708 15.44803,0c7.72402,-0.29708 13.66557,2.97078 18.41881,8.91233c10.10064,12.77433 8.61525,34.75807 -3.26785,45.15579c-3.86201,2.97078 -8.02109,4.75324 -12.77433,5.05032z"
           stroke="null"
           fill="#4e73df" />
        <path
           style="fill:#000000;fill-opacity:1"
           id="path8"
           d="m796.55876,70.65573c-0.29708,-2.6737 -0.89123,-5.3474 -1.18831,-7.72402c-2.6737,-14.25972 -9.80356,-25.54867 -21.09251,-34.461c-7.72402,-5.94155 -16.33927,-9.2094 -25.84575,-10.69479c-3.56493,-0.89123 -7.12986,-0.89123 -10.99187,0c-11.58602,1.78247 -21.68666,6.23863 -30.00483,14.5568c-0.59416,0.59416 -1.18831,1.18831 -1.78247,1.78247c-5.3474,5.94155 -9.2094,13.07141 -9.2094,13.07141c-5.05032,9.50648 -6.53571,18.41881 -6.53571,21.98374c0,0.29708 0,2.37662 0,2.37662c0,0 0,-2.97078 0,-2.97078c0,0 0,0.59416 0,1.48539c0,0 0,0 0,0c0,0 0,0 0,0c-0.29708,2.37662 -0.29708,5.05032 0,8.02109c0,1.48539 0.29708,2.97078 0.59416,4.45616c0.59416,4.45616 2.6737,19.31004 14.85388,32.38145c12.47726,13.36849 27.92529,16.04219 32.38145,16.63634c0.89123,0.89123 2.07954,0.29708 3.26785,0.29708c0,0 0,0 0,0c16.04219,0 29.70776,-5.3474 40.40255,-17.2305c9.2094,-9.80356 13.96265,-21.68666 15.74511,-35.05515c0,-2.6737 0,-5.94155 -0.59416,-8.91233zm-25.54867,46.64118c-15.74511,16.04219 -40.10547,16.04219 -56.14766,0c-13.66557,-13.96265 -18.41881,-30.89607 -16.33927,-49.90903c1.48539,-13.66557 7.12986,-25.84575 17.2305,-35.35223c16.04219,-15.44803 40.10547,-15.15096 55.85058,0.89123c10.39771,10.39771 15.44803,23.17205 16.33927,37.72885c0,1.48539 0.29708,3.26785 0.29708,5.05032c-0.59416,15.44803 -5.64447,29.70776 -17.2305,41.59086z"
           stroke="null"
           fill="#4e73df" />
        <path
           style="fill:#000000;fill-opacity:1"
           id="path10"
           d="m336.08855,27.2824c-3.56493,-12.47726 -14.5568,-20.49835 -28.22237,-20.49835c-9.80356,0 -19.60712,0 -29.41068,0c-2.6737,0 -3.26785,0.59416 -3.26785,3.26785c0,38.323 0,76.34893 0,114.67194c0,6.23863 0,6.23863 6.53571,6.23863c2.37662,0 2.97078,-0.59416 2.97078,-2.97078c0,-18.41881 0,-36.83762 0,-55.5535c0,-3.26785 0,-6.23863 0.29708,-9.50648c8.02109,0 15.74511,0 23.7662,0c1.18831,0 2.37662,0 3.26785,-0.59416c14.85388,-2.6737 22.87497,-10.69479 25.54867,-25.54867c0,-2.37662 0,0 0,-4.45616c-0.89123,-1.48539 -1.18831,-3.26785 -1.48539,-5.05032zm-14.85388,26.14282c-3.26785,3.86201 -7.42694,6.23863 -12.77433,6.23863c-7.42694,0 -14.85388,0 -22.28082,0c-1.78247,0 -2.37662,-0.59416 -2.37662,-2.37662c0,-7.72402 0,-15.15096 0,-22.87497c0,-7.12986 0.29708,-14.25972 0,-21.38958c0,-2.6737 0.89123,-3.26785 3.26785,-3.26785c6.53571,0.29708 13.07141,0.29708 19.60712,0c7.12986,-0.29708 12.18018,2.97078 15.74511,8.61525c7.42694,10.10064 6.53571,25.84575 -1.18831,35.05515z"
           stroke="null"
           fill="#4e73df" />
        <path
           style="fill:#000000;fill-opacity:1"
           id="path12"
           d="m20.59219,59.36678c-4.75324,0 -7.12986,0.89123 -6.83278,-3.26785c0.29708,-3.86201 0,-6.23863 0,-10.69479c0.29708,-10.69479 0.29708,-21.38958 0,-31.7873c0,-2.97078 0.59416,-3.86201 3.26785,-3.86201c5.94155,0.29708 11.8831,0.29708 17.82465,0c10.39771,0 16.63634,3.86201 20.20127,13.66557c3.56493,9.50648 2.97078,18.71589 -2.37662,27.33114c-3.86201,6.23863 -9.50648,8.91233 -17.2305,8.91233c-5.05032,0 -9.80356,-0.29708 -14.85388,-0.29708zm28.22237,1.18831c11.8831,-4.45616 18.71589,-16.04219 17.82465,-27.33114c-1.48539,-15.74511 -13.07141,-26.14282 -29.41068,-26.4399c-10.99187,0 -21.68666,0 -32.67853,0c0,19.01296 0,38.02593 0,57.03889c0,21.68666 0,43.6704 0,65.35706c0,0.89123 0.89123,1.78247 1.78247,1.78247l5.94155,0c0.59416,0 1.18831,-0.59416 1.18831,-1.18831c0,-2.6737 0.29708,-5.05032 0.29708,-7.72402c0,-18.41881 0,-37.13469 0,-55.5535c0,-1.18831 -0.29708,-2.37662 0.29708,-3.26785c0,0 0,0 0,0l0,0c0,0 0,0 0,0c0.59416,-0.89123 1.18831,-0.59416 2.07954,-0.59416c8.31817,0 16.93342,0 25.25159,0c2.37662,-0.29708 5.05032,-1.18831 7.42694,-2.07954z"
           stroke="null"
           fill="#4e73df" />
        <path
           style="fill:#000000;fill-opacity:1"
           id="path14"
           d="m592.1694,129.47708c0,-2.07954 -1.48539,-1.48539 -2.6737,-1.48539c-10.39771,0 -20.79543,0 -31.49022,0c-2.37662,0 -3.26785,-0.59416 -3.26785,-2.97078c0,-17.2305 0,-34.461 0,-51.69149c0,-3.26785 0,-6.83278 0.29708,-10.10064c8.02109,0 16.33927,0 24.36036,0c1.18831,0 2.37662,0.29708 3.26785,-0.59416c0,-0.89123 0,-1.78247 0,-2.6737c-0.89123,-0.89123 -2.07954,-0.59416 -3.26785,-0.59416c-8.02109,0 -16.33927,0 -24.36036,0c0,-0.29708 -0.29708,-0.89123 -0.29708,-1.18831c0,-15.44803 0,-30.89607 0,-46.3441c0,-2.07954 1.18831,-2.07954 2.6737,-2.07954c10.69479,0 21.38958,0 32.08438,0c0.89123,0 2.6737,0.89123 2.6737,-1.48539c0,-2.37662 -1.78247,-1.78247 -2.97078,-1.78247c-13.66557,0 -27.33114,0 -40.9967,0c-2.37662,0 -2.97078,0.59416 -2.97078,2.97078c0,39.51131 0,79.02263 0,118.53394c0,2.07954 0.29708,2.97078 2.6737,2.97078c13.66557,0 27.33114,0 41.29378,0c1.18831,0 2.97078,0.89123 2.97078,-1.48539z"
           stroke="null"
           fill="#4e73df" />
        <path
           style="fill:#000000;fill-opacity:1"
           id="path16"
           d="m624.25378,9.75483c6.83278,0 13.96265,0.29708 20.79543,0c2.97078,0 4.15909,0.59416 3.86201,3.86201c0,35.94638 0,71.89277 0,108.13623c0,2.97078 -0.89123,6.83278 0.59416,8.61525c1.78247,2.07954 5.64447,0.29708 8.61525,0.59416l0,0c0,0 0,0 0,0c1.18831,-1.18831 0.59416,-2.6737 0.59416,-3.86201c0,-38.91716 0,-77.83432 0,-117.04856c9.2094,0 128.3375,0 137.54691,-0.29708c-0.29708,-1.18831 -0.89123,-2.07954 -1.78247,-3.26785c-20.49835,0 -149.72709,0 -170.22544,0c-1.18831,0 -1.78247,-0.59416 -3.26785,1.48539c-1.18831,2.37662 2.07954,1.78247 3.26785,1.78247z"
           stroke="null"
           fill="#4e73df" />
        <path
           style="fill:#000000;fill-opacity:1"
           id="path18"
           d="m604.0525,130.36832c1.78247,1.48539 5.64447,0.29708 8.61525,0.59416c0,0 0,0 0,0c0,0 0,0 0,0c0.89123,-0.89123 0.59416,-2.07954 0.59416,-3.26785c0,-39.21424 0,-78.42847 0,-117.64271c0,-1.18831 0.29708,-2.37662 -0.59416,-3.26785c-2.07954,0 -4.15909,0.29708 -5.94155,0c-2.6737,-0.29708 -3.26785,0.89123 -3.26785,3.26785c0,37.43177 0,74.56647 0,111.99824c0,2.6737 -1.18831,6.83278 0.59416,8.31817z"
           stroke="null"
           fill="#4e73df" />
        <path
           style="fill:#000000;fill-opacity:1"
           id="path20"
           d="m489.08349,6.78405c-0.89123,0.89123 -0.59416,2.07954 -0.59416,3.26785c0,39.21424 0,78.42847 0,117.64271c0,1.18831 -0.29708,2.37662 0.59416,3.26785c2.97078,0 5.94155,0 8.91233,0c0.89123,-0.89123 0.59416,-2.07954 0.59416,-2.97078c0,-21.68666 0,-43.07625 0,-64.76291c8.31817,0 16.33927,0 24.65744,0c1.18831,0 2.37662,0.29708 3.26785,-0.89123c0,-0.59416 0,-1.48539 0,-2.07954c-0.89123,-1.18831 -2.37662,-0.89123 -3.56493,-0.89123c-8.02109,0 -16.04219,0 -24.36036,0l0,0c0,-16.33927 0,-32.67853 0,-49.0178c1.18831,0 2.07954,-0.29708 3.26785,-0.29708c11.28895,0 22.28082,0 33.56976,0c0.89123,-1.18831 0.89123,-2.07954 0,-3.26785c-15.44803,0 -30.89607,0 -46.3441,0z"
           stroke="null"
           fill="#4e73df" />
        <path
           style="fill:#000000;fill-opacity:1"
           id="path22"
           d="m395.20698,6.78405l0,0c-15.44803,0 -30.89607,0 -46.04702,0c-0.89123,0.89123 -0.59416,2.07954 -0.59416,3.26785c0,39.21424 0,78.42847 0,117.64271c0,1.18831 -0.29708,2.37662 0.59416,3.26785c0,0 0,0 0,0c14.5568,0 29.41068,0 43.96748,0c1.78247,0 2.6737,-0.29708 2.37662,-2.07954c-0.29708,-1.48539 -1.78247,-0.89123 -2.6737,-0.89123c-11.28895,0 -22.87497,-0.29708 -34.16392,-0.29708c0,-20.49835 0,-40.69963 0,-61.19798c0,-2.6737 0.89123,-3.56493 3.26785,-3.56493c6.83278,0.29708 13.96265,0 20.79543,0c1.48539,0 3.56493,0.89123 3.56493,-1.78247c0,-2.6737 -2.07954,-2.07954 -3.56493,-2.07954c-8.02109,0 -16.33927,0 -24.36036,0l0,0c0,-16.33927 0,-32.97561 0,-49.31487c12.18018,0 24.36036,0 36.54054,-0.29708c1.48539,-0.59416 1.48539,-1.78247 0.29708,-2.6737z"
           stroke="null"
           fill="#4e73df" />
        <path
           style="fill:#000000;fill-opacity:1"
           id="path24"
           d="m215.47506,124.12969c0,-0.89123 -0.29708,-1.78247 -0.29708,-2.6737c-0.89123,-4.75324 -1.48539,-9.80356 -2.6737,-14.5568c-4.15909,-15.44803 -10.69479,-28.81652 -25.84575,-36.54054c0.89123,-0.59416 1.78247,-0.89123 2.6737,-1.18831c12.47726,-5.3474 22.28082,-20.20127 19.9042,-35.05515c-2.07954,-12.47726 -14.5568,-25.54867 -27.33114,-26.73698c-10.99187,-1.18831 -21.68666,-0.29708 -32.67853,-0.59416c-0.29708,0 -0.29708,0 -0.59416,0l-0.29708,0l0,124.17842l3.26785,0l0,0c0.59416,0 1.18831,0 1.78247,0c2.6737,0.29708 3.26785,-0.89123 3.26785,-3.26785c0,-17.82465 0,-35.35223 0,-53.17688c0,-1.18831 -0.29708,-2.6737 1.78247,-2.6737c6.53571,0.29708 13.36849,0 19.9042,0.29708c1.78247,0 5.05032,1.18831 5.94155,1.48539c5.64447,2.97078 13.96265,13.36849 17.52758,24.65744c2.37662,7.42694 3.56493,18.12173 3.56493,18.71589c0,0 0,0.59416 0,1.18831c0,0.89123 0.29708,1.48539 0.29708,1.48539c0.29708,1.18831 0,2.07954 0.29708,4.75324c0,0.29708 0,0.89123 0,2.6737c0,1.48539 0,2.6737 0.29708,4.15909c1.48539,0 2.6737,0 4.15909,0c5.05032,0 5.94155,0 5.3474,-4.75324c0,-1.18831 0,-1.78247 -0.29708,-2.37662zm-38.02593,-55.25643c-6.23863,0 -12.47726,0 -18.71589,0c-1.78247,0 -2.07954,-0.59416 -2.07954,-2.37662c0,-9.2094 0,-18.12173 0,-27.33114c0,-8.91233 0,-17.82465 0,-26.4399c0,-2.37662 0.59416,-2.97078 2.97078,-2.97078c5.05032,0.29708 10.39771,0.29708 15.44803,0c7.72402,-0.29708 13.66557,2.97078 18.41881,8.91233c10.10064,12.77433 8.61525,34.75807 -3.26785,45.15579c-3.56493,3.26785 -8.02109,4.75324 -12.77433,5.05032z"
           stroke="null"
           fill="#4e73df" />
        <path
           style="fill:#000000;fill-opacity:1"
           id="path26"
           d="m650.99076,209.09387c-2.07954,3.26785 -4.15909,5.05032 -6.23863,5.3474c-0.89123,0 -1.18831,-0.29708 -0.89123,-1.18831c0,-0.29708 0,-0.59416 0.29708,-0.59416c0,-0.29708 0,-0.59416 0.29708,-0.89123c0.29708,-1.48539 0,-2.97078 -0.29708,-4.45616c-0.59416,-2.37662 -2.37662,-3.56493 -4.75324,-3.56493c-1.78247,0 -3.26785,0.29708 -4.45616,1.18831c-1.48539,0.59416 -2.37662,1.78247 -3.26785,3.26785c-0.59416,1.18831 -1.18831,2.37662 -1.48539,3.86201c0,0.29708 0,0.59416 0,0.89123c-0.29708,0 -0.59416,0 -0.59416,0c-0.29708,-0.29708 -0.59416,-0.59416 -0.89123,-1.48539c-0.59416,-2.6737 -1.78247,-4.75324 -3.26785,-6.83278c-1.48539,-2.07954 -3.26785,-3.86201 -5.64447,-5.3474c-3.56493,-2.6737 -7.42694,-4.45616 -11.8831,-5.94155c-7.72402,-2.37662 -15.44803,-3.86201 -23.46913,-4.15909c0,0 0,0 -0.29708,0c-0.59416,0 -1.18831,0 -1.78247,-0.29708c0,0 -0.29708,0 -0.29708,-0.29708c0,0 -0.29708,-0.29708 -0.29708,-0.29708c-0.29708,-1.18831 0,-2.37662 0.89123,-2.97078c1.48539,-0.89123 2.97078,-1.78247 4.45616,-2.6737c0,0 0.29708,0 0.29708,-0.29708c2.97078,-1.78247 5.94155,-3.56493 9.2094,-5.64447s5.94155,-3.86201 8.61525,-5.94155c1.48539,-1.18831 3.26785,-2.37662 5.3474,-4.15909c2.07954,-1.48539 3.86201,-3.26785 5.64447,-5.05032c1.78247,-1.78247 3.26785,-3.56493 4.15909,-5.05032c1.78247,-3.56493 1.18831,-6.23863 -2.07954,-8.31817c-2.97078,-2.07954 -7.12986,-3.26785 -12.18018,-3.56493c-5.05032,-0.29708 -10.39771,0.29708 -16.04219,1.48539c-5.64447,1.18831 -10.99187,3.26785 -15.74511,5.64447c-4.75324,2.37662 -8.61525,5.3474 -11.28895,8.91233c-0.89123,1.18831 -1.48539,2.07954 -1.78247,3.56493c0,0.29708 0,0.89123 0.29708,1.18831c0.59416,0.59416 1.18831,0.59416 1.78247,0.59416c0.59416,0 1.18831,-0.59416 1.48539,-1.18831c0.29708,-1.18831 0.89123,-2.07954 1.48539,-3.26785c0.59416,-1.18831 1.18831,-2.07954 2.07954,-2.6737c2.37662,-2.37662 5.64447,-4.45616 9.50648,-6.53571c4.15909,-1.78247 8.61525,-3.56493 13.36849,-4.45616c4.75324,-1.18831 9.2094,-1.48539 13.66557,-1.48539c4.15909,0.29708 7.72402,1.18831 10.39771,2.97078c2.07954,1.48539 2.6737,3.56493 1.48539,5.94155c-1.18831,2.07954 -2.97078,4.45616 -5.64447,6.83278c-2.6737,2.37662 -5.94155,5.05032 -9.50648,7.42694c-3.56493,2.37662 -7.12986,4.75324 -10.69479,6.83278c-3.56493,2.07954 -6.53571,3.86201 -8.91233,5.3474c-0.29708,-1.18831 -0.59416,-2.07954 -0.29708,-2.97078c0,-0.29708 0,-0.29708 0,-0.59416c0,-2.97078 0,-5.94155 0,-9.2094c0,-2.37662 0,-5.05032 0,-7.42694c0,-0.89123 0,-2.07954 0,-2.97078c-0.29708,-0.89123 -0.89123,-1.48539 -1.78247,-1.48539c-1.18831,0 -1.78247,0.59416 -1.78247,1.48539c0,0.89123 0,1.48539 0,2.37662c0,0 0,0 0,0.29708c0,2.37662 0,4.75324 0,7.12986c0,4.15909 0,8.31817 0,12.47726c0,0.59416 0,0.89123 0,1.48539c0,0.59416 0,1.18831 0,1.48539c0,0.29708 -0.29708,0.59416 -0.59416,0.89123c-0.29708,0.29708 -0.59416,0.59416 -1.48539,0.89123c-0.29708,0.29708 -0.59416,0.29708 -0.89123,0.59416c-0.89123,0.59416 -1.48539,1.18831 -2.37662,1.78247c-0.59416,0.59416 -0.59416,0.89123 -0.59416,1.78247c0.29708,0.59416 0.59416,0.89123 1.18831,0.89123c0.59416,0 1.48539,0 2.07954,0.29708c0.29708,0 0.59416,0 0.89123,0c0.59416,0 1.18831,0.29708 1.18831,0.29708c0.29708,0.29708 0.29708,0.59416 0.29708,1.48539c0,0.59416 0,1.18831 0,2.07954c0,0.29708 0,0.29708 0,0.59416c0,2.6737 0,5.3474 0,7.72402c0,5.3474 0,10.39771 0,15.74511c0,0.89123 0,1.78247 0,2.6737c0,0.59416 0.29708,0.89123 0.89123,1.18831c1.48539,0.59416 2.37662,0 2.6737,-1.78247c0,-0.29708 0,-0.59416 0,-1.18831c0,0 0,-0.29708 0,-0.59416c0,-2.6737 0,-5.05032 0,-7.72402c0,-5.94155 0,-11.58602 0,-17.52758c0,-0.59416 0,-1.48539 0,-2.07954c0,-0.59416 0.29708,-0.89123 0.89123,-0.89123c0.59416,0 1.18831,0 1.48539,0c7.72402,0.29708 15.15096,1.78247 22.28082,4.45616c2.37662,0.89123 4.75324,1.78247 6.83278,3.26785c2.07954,1.18831 4.15909,2.6737 5.94155,4.75324c2.6737,2.6737 4.15909,5.64447 5.05032,9.2094c0.29708,0.89123 0,1.18831 -0.89123,1.48539c-0.89123,0.29708 -2.07954,0.29708 -2.97078,0.59416c-0.89123,0.29708 -2.07954,0.29708 -2.97078,0.59416c-3.56493,0.59416 -7.72402,1.78247 -12.47726,3.26785c-4.75324,1.48539 -9.50648,3.26785 -14.5568,5.3474c-5.05032,2.07954 -9.80356,4.45616 -14.5568,7.12986c-4.75324,2.6737 -8.61525,5.64447 -12.18018,8.61525c-3.56493,3.26785 -5.94155,6.53571 -7.72402,10.39771c-1.48539,3.86201 -1.78247,7.42694 -0.59416,10.69479c1.18831,3.26785 3.56493,5.94155 6.83278,8.02109c2.97078,1.48539 6.23863,2.37662 9.50648,2.6737c4.15909,0.29708 8.02109,0 11.58602,-0.89123c3.86201,-0.89123 7.42694,-2.37662 10.99187,-4.15909c6.53571,-3.56493 12.18018,-7.72402 16.93342,-12.47726c4.75324,-5.05032 8.91233,-10.69479 12.18018,-16.93342c1.78247,-2.97078 2.97078,-6.23863 4.15909,-9.50648c0.89123,-3.26785 1.48539,-6.83278 1.48539,-10.39771c0,-0.29708 0.29708,-0.89123 0.59416,-1.18831c0,0.59416 0,0.89123 0.29708,1.48539c0.59416,1.78247 1.48539,2.97078 2.97078,3.56493c1.48539,0.59416 2.6737,0.59416 4.45616,0.29708c1.48539,-0.29708 2.97078,-1.18831 3.86201,-2.37662l0,0c0.29708,-0.29708 0.59416,-0.59416 0.59416,-0.89123c0.29708,-0.29708 0.29708,-0.59416 0.59416,-0.59416c0.29708,0 0.59416,0 0.89123,0c1.78247,0 3.56493,-0.59416 5.3474,-2.37662c1.78247,-1.78247 2.6737,-2.97078 2.6737,-3.86201c0.59416,-2.07954 0.29708,-2.37662 0,-2.07954zm-26.14282,10.10064c-0.29708,2.97078 -0.89123,6.23863 -2.07954,9.2094c-3.26785,8.31817 -7.42694,15.44803 -13.07141,21.68666c-5.3474,6.23863 -12.18018,11.28895 -19.9042,15.15096c-4.45616,2.07954 -8.91233,3.56493 -13.96265,3.86201c-0.29708,0 -0.59416,0 -1.18831,0c-0.29708,0 -0.29708,0 -0.59416,0c-2.6737,0 -5.05032,-0.59416 -7.42694,-1.48539c-1.78247,-0.59416 -3.26785,-2.07954 -4.45616,-3.86201c-1.18831,-1.78247 -1.78247,-3.86201 -1.78247,-6.23863c0,-2.37662 0.59416,-5.05032 1.78247,-7.72402c1.78247,-3.56493 4.15909,-7.12986 7.72402,-10.10064c3.26785,-2.97078 7.42694,-5.94155 11.8831,-8.31817c4.45616,-2.37662 9.2094,-4.75324 13.96265,-6.53571c4.75324,-1.78247 9.50648,-3.56493 13.96265,-4.75324c4.45616,-1.18831 8.61525,-2.37662 12.18018,-2.97078c1.48539,-0.29708 2.37662,-0.29708 2.97078,0c0.29708,-0.29708 0.29708,0.59416 0,2.07954zm11.28895,-0.59416c-1.18831,0.59416 -1.78247,0.29708 -2.37662,-0.89123c-0.59416,-1.18831 -0.59416,-2.37662 -0.59416,-3.86201c0,-1.48539 0.59416,-2.97078 1.18831,-4.15909c0.59416,2.6737 2.07954,4.45616 4.45616,5.94155c-0.29708,1.18831 -1.18831,2.37662 -2.6737,2.97078zm3.86201,-5.94155c-0.59416,-0.29708 -0.89123,-1.18831 -1.18831,-1.78247c-0.29708,-0.89123 -0.29708,-1.78247 -0.29708,-2.37662c0,-0.89123 0.29708,-1.48539 0.89123,-1.78247c0.29708,-0.29708 0.59416,0 0.89123,0.29708c0.29708,0.29708 0.29708,0.89123 0.59416,1.78247c0,0.59416 0.29708,1.48539 0,2.07954c-0.29708,0.59416 -0.59416,1.18831 -0.89123,1.78247z"
           stroke="null"
           fill="#4e73df" />
        <path
           style="fill:#000000;fill-opacity:1"
           id="path28"
           d="m703.57348,195.4283c0,0.29708 -0.29708,0.59416 -0.29708,0.89123c0,0 0,0 0,0.29708c0,0.29708 0,0.59416 0,0.89123c0,0.29708 0.29708,0.59416 0.29708,0.59416c0.29708,0 0.59416,0 0.89123,0c0.29708,0 0.59416,-0.29708 0.89123,-0.29708c0.59416,-0.59416 1.18831,-1.48539 1.48539,-2.37662c0,-0.29708 0,-0.59416 -0.29708,-0.89123c-0.29708,-0.29708 -0.59416,-0.29708 -0.89123,-0.59416c-0.89123,0.29708 -1.48539,0.59416 -2.07954,1.48539z"
           stroke="null"
           fill="#4e73df" />
        <path
           style="fill:#000000;fill-opacity:1"
           id="path30"
           d="m715.75366,210.28218c-0.29708,-0.59416 -0.59416,-0.29708 -1.18831,0.59416c-0.59416,0.89123 -1.48539,2.37662 -2.97078,3.86201c-1.48539,1.48539 -2.97078,2.07954 -4.15909,1.48539c-1.18831,-0.59416 -1.78247,-2.07954 -1.78247,-4.75324c0,-0.59416 0,-1.18831 0,-1.78247c0,-0.89123 0,-1.48539 0,-2.37662c0,-0.29708 0,-0.59416 0,-0.89123c0,-0.59416 0,-1.18831 0,-1.48539c0,-1.78247 -1.18831,-2.37662 -2.6737,-1.78247c-0.59416,0.29708 -1.18831,0.89123 -1.18831,1.78247c-0.29708,0.89123 -0.59416,2.07954 -0.59416,3.26785c0,0.59416 0,0.89123 0,1.48539c-0.29708,0 -0.59416,0.29708 -1.18831,0.89123c0,0 -0.29708,0.29708 -0.59416,0.29708c-0.59416,0.29708 -0.89123,0.89123 -1.18831,1.18831c-1.48539,1.48539 -3.26785,2.97078 -4.75324,4.15909c-1.78247,1.18831 -3.26785,2.07954 -4.45616,2.6737c-1.48539,0.59416 -2.6737,0.29708 -3.56493,-0.59416c-0.89123,-0.89123 -1.48539,-2.6737 -1.48539,-5.3474c0,-3.86201 0,-7.72402 0.29708,-11.58602c0,-1.78247 0.29708,-3.26785 0.29708,-4.75324c0,-1.48539 0,-2.37662 0.59416,-2.97078c0.29708,-0.59416 1.18831,-0.89123 2.6737,-0.89123c0.89123,0 1.78247,0 2.97078,0c1.48539,0 3.86201,0 6.83278,-0.29708c4.75324,0 7.12986,-0.59416 6.83278,-1.18831c-0.29708,-0.59416 -2.07954,-0.89123 -5.94155,-0.89123c-3.56493,0 -5.64447,0.29708 -6.53571,0.29708c-1.48539,0 -3.26785,0 -4.75324,0c-0.89123,0 -1.48539,0 -1.78247,-0.29708c-0.29708,-0.29708 -0.29708,-0.89123 -0.29708,-1.78247c0,-0.59416 0,-1.48539 0,-2.07954c0,-0.59416 0,-1.18831 0,-1.78247c0,-1.18831 0,-2.07954 0,-3.26785c0,-0.59416 -0.29708,-0.89123 -1.18831,-1.18831c-0.59416,0 -1.18831,0 -1.78247,0.59416c-0.29708,0.59416 -0.59416,1.48539 -0.59416,2.37662c0,0.59416 0,1.18831 0,1.78247c0,1.18831 0,2.07954 -0.29708,3.26785c0,0.89123 -0.29708,1.78247 -0.29708,2.07954c-0.29708,0.29708 -0.89123,0.59416 -2.07954,0.59416c-0.29708,0 -0.59416,0 -1.18831,0c-0.59416,0 -1.48539,0 -2.07954,0c-0.59416,0 -1.48539,0 -1.78247,0.29708c-0.59416,0.29708 -0.89123,0.59416 -0.59416,1.18831c0.29708,0.29708 0.89123,0.59416 1.78247,0.59416c0.59416,0 1.18831,0 2.07954,0c0.89123,0 1.78247,0 2.37662,0c0.59416,0 0.89123,0.29708 1.18831,0.59416c0.29708,0.29708 0.29708,0.89123 0.29708,1.48539c0,1.78247 0,3.56493 -0.29708,5.3474c0,1.18831 0,2.07954 0,3.26785c0,2.07954 0,3.86201 -0.29708,5.94155c0,0 -0.29708,0.29708 -0.59416,0.29708c-0.29708,0.29708 -0.59416,0.59416 -0.89123,0.89123s-0.59416,0.59416 -0.89123,0.89123c-0.29708,0.29708 -0.29708,0.29708 -0.29708,0.59416c-1.18831,1.48539 -2.37662,2.37662 -3.86201,3.26785c-1.18831,0.89123 -2.37662,1.18831 -3.26785,0.59416c-0.89123,-0.29708 -1.48539,-1.48539 -1.18831,-3.86201c0,-1.48539 0,-2.97078 0.29708,-4.45616c0,-0.89123 0,-2.07954 0.29708,-3.26785c0,-0.89123 0,-2.07954 0,-2.97078c0,-0.89123 -0.59416,-1.18831 -1.48539,-1.18831c-1.48539,-0.29708 -2.37662,0.29708 -2.6737,1.48539c-0.29708,0.59416 -0.29708,1.18831 -0.59416,2.07954c0,0.59416 -0.29708,0.89123 -0.29708,1.48539c0,0 0,0.29708 0,0.59416c0,0.59416 -0.29708,1.48539 -0.59416,2.6737c-0.29708,1.18831 -0.59416,2.07954 -1.18831,3.26785c-0.59416,1.48539 -1.48539,2.37662 -2.07954,2.97078c-0.89123,0.59416 -1.48539,0.59416 -2.37662,-0.29708c-0.59416,-1.18831 -1.18831,-2.37662 -1.18831,-4.15909c0,-1.48539 0,-2.97078 0,-4.45616c0,-0.29708 0,-0.59416 0.29708,-0.89123c0,-0.59416 0,-0.89123 0,-1.48539c0,-0.59416 -0.29708,-0.89123 -0.89123,-1.18831c-0.59416,-0.29708 -1.18831,-0.29708 -1.48539,0c-0.59416,0.29708 -1.18831,0.89123 -1.48539,1.48539c-0.59416,2.07954 -0.89123,4.45616 -0.59416,6.53571c0.29708,2.07954 0.89123,3.86201 1.78247,5.3474s2.37662,2.07954 3.86201,2.07954c2.97078,0 5.05032,-1.48539 5.94155,-4.15909c0.29708,-0.29708 0.29708,-0.29708 0.29708,0c0,0.29708 0,0.59416 0,0.89123c0,0.59416 0.29708,1.18831 0.29708,1.78247c0.29708,0.59416 0.59416,1.18831 1.18831,1.78247c0.59416,0.59416 1.48539,0.89123 2.37662,0.89123c1.48539,0 2.97078,-0.29708 4.45616,-1.48539s2.97078,-2.07954 4.15909,-3.56493c1.18831,-1.18831 2.07954,-2.37662 2.6737,-3.56493c0,1.78247 0.29708,3.26785 0.59416,4.75324c0.59416,1.78247 1.18831,2.97078 2.37662,4.15909c1.18831,1.18831 2.37662,1.48539 4.15909,1.48539c1.48539,0 2.97078,-0.59416 4.45616,-1.78247c1.48539,-1.18831 3.26785,-2.37662 4.45616,-3.86201c1.48539,-1.48539 2.6737,-2.97078 3.56493,-4.15909c0.89123,-1.18831 1.18831,-1.78247 1.48539,-2.37662c0,0.59416 0,0.89123 0,1.48539c0,0.29708 0,0.59416 0,0.89123c0,0.89123 0,1.78247 0.29708,2.6737c0.29708,0.89123 0.59416,1.78247 1.18831,2.37662c1.48539,1.48539 3.26785,2.07954 5.05032,1.78247c1.78247,-0.29708 3.26785,-1.18831 4.75324,-2.6737c1.48539,-1.48539 2.37662,-2.6737 2.97078,-3.86201c0,0.29708 0.29708,-0.59416 0,-1.18831z"
           stroke="null"
           fill="#4e73df" />
        <path
           style="fill:#000000;fill-opacity:1"
           id="path32"
           d="m795.66753,210.28218c-0.29708,0 -0.89123,0.29708 -1.18831,0.59416c-0.29708,0.29708 -0.89123,0.59416 -1.48539,0.89123c-1.18831,0.89123 -2.97078,1.78247 -4.45616,2.6737c-1.78247,0.89123 -3.26785,1.78247 -5.05032,2.37662s-3.26785,1.18831 -5.05032,1.18831c-1.48539,0 -2.97078,-0.29708 -3.86201,-1.18831c-1.78247,-1.48539 -2.37662,-3.26785 -2.07954,-5.64447c0,-0.89123 0.29708,-1.48539 0.59416,-1.78247c0.29708,-0.29708 0.89123,-0.59416 1.78247,-0.59416c1.78247,0 3.56493,-0.29708 5.05032,-0.59416c1.48539,-0.29708 2.97078,-0.89123 4.15909,-1.78247c0.59416,-0.59416 0.89123,-1.18831 0.89123,-1.78247c0,-0.59416 -0.29708,-1.18831 -1.18831,-1.78247c-0.59416,-0.29708 -1.48539,-0.59416 -2.37662,-0.89123c-1.78247,-0.29708 -3.56493,-0.29708 -5.64447,0c-2.07954,0.59416 -4.15909,1.78247 -5.3474,3.26785c-1.18831,1.48539 -2.07954,2.97078 -2.37662,4.75324c0,0 -0.29708,0 -0.29708,0.29708c-0.29708,0.29708 -0.59416,0.59416 -0.89123,0.89123s-0.59416,0.59416 -0.89123,0.89123c-0.29708,0.29708 -0.29708,0.29708 -0.29708,0.59416c-1.18831,1.48539 -2.37662,2.37662 -3.86201,3.26785c-1.18831,0.89123 -2.37662,1.18831 -3.26785,0.59416c-0.89123,-0.29708 -1.48539,-1.48539 -1.18831,-3.86201c0,-1.48539 0,-2.97078 0.29708,-4.45616c0,-0.89123 0,-2.07954 0.29708,-3.26785c0,-0.89123 0,-2.07954 0,-2.97078c0,-0.89123 -0.59416,-1.18831 -1.48539,-1.18831c-1.48539,-0.29708 -2.37662,0.29708 -2.6737,1.48539c-0.29708,0.59416 -0.29708,1.18831 -0.59416,2.07954c0,0.59416 -0.29708,0.89123 -0.29708,1.48539c0,0 0,0.29708 0,0.59416c0,0.59416 -0.29708,1.48539 -0.59416,2.6737s-0.59416,2.07954 -1.18831,3.26785c-0.59416,1.48539 -1.48539,2.37662 -2.07954,2.97078c-0.89123,0.59416 -1.48539,0.59416 -2.37662,-0.29708c-0.59416,-1.18831 -1.18831,-2.37662 -1.18831,-4.15909c0,-1.48539 0,-2.97078 0,-4.45616c0,-0.29708 0,-0.59416 0.29708,-0.89123c0,-0.59416 0,-0.89123 0,-1.48539c0,-0.59416 -0.29708,-0.89123 -0.89123,-1.18831c-0.59416,-0.29708 -1.18831,-0.29708 -1.48539,0c-0.59416,0.29708 -1.18831,0.89123 -1.48539,1.48539c-0.59416,1.78247 -0.89123,3.56493 -0.59416,5.05032c-0.29708,0 -0.59416,0 -0.89123,0.59416c-0.29708,0.29708 -0.59416,0.89123 -0.89123,1.48539c-0.29708,0.29708 -0.29708,0.89123 -0.59416,1.18831c-1.48539,2.97078 -2.97078,5.94155 -4.45616,9.50648c-1.48539,3.56493 -2.37662,5.94155 -2.97078,7.12986c0,-2.07954 0.29708,-4.75324 0.59416,-7.72402c0.29708,-4.45616 0.59416,-8.02109 0.89123,-10.69479c0,-1.18831 0,-2.37662 0,-3.56493c0,-0.29708 0,-0.89123 -0.29708,-1.18831c-0.29708,-0.29708 -0.59416,-0.59416 -0.89123,-0.59416c-0.89123,0 -1.78247,-0.29708 -2.6737,-0.59416c-0.29708,0 -0.59416,-0.29708 -0.89123,-0.29708c-2.37662,-0.89123 -4.75324,-0.29708 -6.83278,1.18831c-2.37662,1.78247 -3.56493,4.15909 -4.45616,6.83278c-0.29708,0.89123 -0.29708,2.07954 0,2.97078c0.59416,2.07954 1.78247,3.56493 4.15909,3.86201c2.07954,0.29708 3.86201,0 5.3474,-1.18831c0.29708,0 0.29708,-0.29708 0.59416,-0.29708c0.29708,-0.29708 0.29708,-0.29708 0.59416,-0.59416c0.29708,0 0.59416,-0.29708 0.89123,-0.29708c0.29708,0.29708 0.29708,0.29708 0.29708,0.59416c0,0.29708 0,0.29708 0,0.59416c0,0 0,0 0,0.29708c-0.29708,2.97078 -0.59416,6.23863 -0.89123,9.2094c-0.29708,4.75324 -0.89123,9.2094 -1.18831,13.96265c-0.29708,5.05032 -0.89123,9.80356 -1.18831,14.5568c0,0.89123 -0.29708,1.78247 -0.29708,2.6737c0,0.59416 0,1.18831 0,2.07954c0,0.89123 0.59416,1.18831 1.48539,1.48539c0.89123,0 1.48539,-0.29708 1.78247,-1.18831c0.29708,-0.59416 0.29708,-1.18831 0.29708,-1.48539c0.29708,-1.48539 0.59416,-3.26785 0.89123,-4.75324c0.29708,-2.37662 0.89123,-4.75324 1.18831,-7.12986c0.89123,-5.94155 2.37662,-11.58602 3.86201,-17.52758c1.48539,-5.94155 3.56493,-11.58602 6.23863,-16.93342c0,0 0,0 0,-0.29708c0.29708,-0.29708 0.29708,-0.59416 0.59416,-1.18831c0,-0.29708 0,-0.29708 0.29708,-0.59416c0.29708,2.07954 0.89123,3.86201 1.78247,5.3474c0.89123,1.48539 2.37662,2.07954 3.86201,2.07954c2.97078,0 5.05032,-1.48539 5.94155,-4.15909c0.29708,-0.29708 0.29708,-0.29708 0.29708,0c0,0.29708 0,0.59416 0,0.89123c0,0.59416 0.29708,1.18831 0.29708,1.78247c0.29708,0.59416 0.59416,1.18831 1.18831,1.78247c0.59416,0.59416 1.48539,0.89123 2.37662,0.89123c1.48539,0 2.97078,-0.29708 4.45616,-1.48539c1.48539,-0.89123 2.97078,-2.07954 4.15909,-3.56493c0.89123,-1.18831 1.78247,-2.07954 2.07954,-2.97078c0,2.37662 0.89123,4.15909 2.6737,5.94155c1.48539,1.18831 2.97078,2.07954 4.75324,2.37662c1.78247,0.29708 3.56493,0 5.05032,-0.29708c1.78247,-0.29708 3.26785,-0.89123 5.05032,-1.78247c2.07954,-0.89123 3.86201,-2.07954 5.94155,-3.26785c1.78247,-1.18831 3.56493,-2.6737 5.05032,-4.45616c0.29708,-0.59416 0.59416,-0.89123 0.59416,-0.89123c-1.18831,0.59416 -1.48539,0.59416 -1.78247,0.59416zm-20.79543,-3.56493c0,0 0.29708,-0.29708 0.29708,-0.29708c0,0 0.29708,-0.29708 0.29708,-0.29708c0,0 0,0 0,0c0.59416,-0.29708 1.18831,-0.59416 1.78247,-0.89123c0.59416,-0.29708 1.18831,-0.29708 2.07954,-0.29708c0.29708,0 0.29708,0 0.59416,0.29708c0,0 0.29708,0.29708 0.29708,0.29708c0.29708,0.29708 0,0.59416 -0.59416,0.89123c-0.59416,0.29708 -1.18831,0.59416 -1.78247,0.59416c-0.89123,0.29708 -1.48539,0.29708 -2.07954,0.29708c-0.89123,-0.29708 -1.18831,-0.29708 -0.89123,-0.59416c-0.29708,0 -0.29708,0 0,0zm-48.12656,3.26785c-0.29708,1.18831 -0.89123,2.37662 -1.48539,3.56493c-0.59416,1.18831 -1.48539,2.07954 -2.37662,2.97078c-0.29708,0.29708 -0.89123,0.59416 -1.18831,0.89123c-0.89123,0.59416 -1.48539,0.29708 -1.78247,-0.89123c-0.29708,-1.18831 0,-2.6737 0.29708,-4.45616c0.59416,-1.78247 1.48539,-3.56493 2.97078,-5.05032c0.89123,-0.59416 1.78247,-0.59416 2.37662,0c0.59416,0.29708 0.89123,0.89123 1.18831,1.18831c0.29708,0.89123 0.29708,1.18831 0,1.78247z"
           stroke="null"
           fill="#4e73df" />
      </g>
    </g>
  </g>
</svg>
